<svg width="17" height="16" viewBox="0 0 17 16" fill="none" xmlns="http://www.w3.org/2000/svg">
<path fill-rule="evenodd" clip-rule="evenodd" d="M15.966 9.33335C16.1484 9.33468 16.3221 9.41183 16.4465 9.54668C16.5713 9.67886 16.636 9.85761 16.6251 10.04C16.4271 13.3874 13.6857 15.9997 10.3703 16H7.06171C3.74639 15.9997 1.00499 13.3874 0.806932 10.04C0.798249 9.85806 0.862394 9.68023 0.984887 9.54668C1.10839 9.41018 1.28309 9.33272 1.46602 9.33335H3.85062C3.99593 9.33473 4.125 9.23967 4.1683 9.09935C4.34042 8.54572 4.84681 8.1683 5.42057 8.16601H8.71932C9.29308 8.1683 9.79947 8.54572 9.97159 9.09935C10.0145 9.23849 10.1419 9.33327 10.286 9.33335H13.8233C14.0053 9.33335 14.1529 9.18411 14.1529 9.00001V2.00001C14.1536 1.73655 14.0009 1.49736 13.7632 1.38968C13.5255 1.282 13.2473 1.32602 13.0535 1.50201L12.7833 1.77535C12.6953 1.86493 12.665 1.99706 12.7048 2.11668C12.9347 2.80327 12.7603 3.56229 12.2547 4.07601L12.1229 4.21268C11.8655 4.47294 11.4483 4.47294 11.1909 4.21268L9.44762 2.44868C9.19032 2.18835 9.19032 1.76635 9.44762 1.50601L9.58273 1.36935C10.0966 0.872756 10.8386 0.701707 11.5145 0.924014C11.6319 0.96174 11.7603 0.930112 11.8474 0.842014L12.1525 0.533348C12.7292 -0.00563735 13.5665 -0.148438 14.286 0.169491C15.0055 0.487419 15.4708 1.20583 15.4717 2.00001V9.00001C15.4717 9.18411 15.6193 9.33335 15.8013 9.33335H15.966ZM8.38649 13.5C8.56849 13.5 8.71603 13.3508 8.71603 13.1667V9.83335C8.71603 9.64925 8.56849 9.50001 8.38649 9.50001H5.75012C5.56812 9.50001 5.42058 9.64925 5.42058 9.83335V13.1667C5.42058 13.3508 5.56812 13.5 5.75012 13.5H8.38649Z" fill="black"/>
<path d="M6.73877 4.05868C6.83393 4.05952 6.92814 4.03951 7.01493 4.00002L8.21184 3.44135C8.426 3.34191 8.57144 3.13446 8.59338 2.89714C8.61533 2.65982 8.51043 2.42869 8.31821 2.2908C8.12599 2.15292 7.87565 2.12924 7.66149 2.22868L6.46261 2.78668C6.18155 2.91786 6.0286 3.2292 6.09499 3.53501C6.16139 3.84082 6.42923 4.05869 6.73877 4.05868Z" fill="black"/>
<path d="M10.1146 7.67267C10.4493 7.81709 10.8364 7.65982 10.9794 7.32134L11.4974 6.09467C11.631 5.7582 11.4743 5.37542 11.1446 5.23306C10.8149 5.09071 10.4331 5.241 10.2853 5.57134L9.77059 6.8C9.62873 7.1371 9.78238 7.52682 10.1146 7.67267Z" fill="black"/>
<path d="M7.71818 6.05068C7.97428 6.31223 8.39149 6.31431 8.65014 6.05534L9.58737 5.11801C9.83902 4.85792 9.83796 4.44176 9.585 4.18298C9.33204 3.9242 8.92065 3.91843 8.66068 4.17001L7.72346 5.10801C7.4647 5.36687 7.46234 5.78887 7.71818 6.05068Z" fill="black"/>
</svg>
