<svg width="16" height="16" viewBox="0 0 16 16" fill="none" xmlns="http://www.w3.org/2000/svg">
<path fill-rule="evenodd" clip-rule="evenodd" d="M12.5511 2H14.3636C15.0916 2 15.6818 2.59695 15.6818 3.33333V14.6667C15.6818 15.403 15.0916 16 14.3636 16H1.84089C1.11288 16 0.522705 15.403 0.522705 14.6667V3.33333C0.522705 2.59695 1.11288 2 1.84089 2H2.82952C3.01153 2 3.15907 2.14924 3.15907 2.33333V3.83333C3.15907 4.10948 3.38038 4.33333 3.65339 4.33333C3.92639 4.33333 4.14771 4.10948 4.14771 3.83333V0.666667C4.14771 0.298477 4.44279 0 4.8068 0C5.1708 0 5.46589 0.298477 5.46589 0.666667V1.834C5.46625 1.92579 5.53992 2 5.63066 2H9.74998C9.93198 2 10.0795 2.14924 10.0795 2.33333V3.83333C10.0795 4.10948 10.3008 4.33333 10.5738 4.33333C10.8468 4.33333 11.0682 4.10948 11.0682 3.83333V0.666667C11.0682 0.298477 11.3632 0 11.7273 0C12.0913 0 12.3863 0.298477 12.3863 0.666667V1.83333C12.3863 1.92538 12.4601 2 12.5511 2ZM2.17043 14.6667H14.0341C14.2161 14.6667 14.3636 14.5174 14.3636 14.3333V6.33333C14.3636 6.14924 14.2161 6 14.0341 6H2.17043C1.98843 6 1.84089 6.14924 1.84089 6.33333V14.3333C1.84089 14.5174 1.98843 14.6667 2.17043 14.6667Z" fill="black"/>
</svg>
