<svg width="17" height="16" viewBox="0 0 17 16" fill="none" xmlns="http://www.w3.org/2000/svg">
<path d="M16.2227 3.94466L8.6432 0.611331C8.55929 0.573567 8.46348 0.573567 8.37957 0.611331L0.800022 3.94466C0.679983 3.99766 0.602362 4.11752 0.602295 4.25V5.25C0.602295 5.43409 0.749837 5.58333 0.93184 5.58333H16.0909C16.2729 5.58333 16.4205 5.43409 16.4205 5.25V4.25C16.4204 4.11752 16.3428 3.99766 16.2227 3.94466Z" fill="black"/>
<path d="M11.9717 9.58331H5.38079C5.10779 9.58331 4.88647 9.80717 4.88647 10.0833C4.88647 10.3595 5.10779 10.5833 5.38079 10.5833H11.9717C12.2447 10.5833 12.466 10.3595 12.466 10.0833C12.466 9.80717 12.2447 9.58331 11.9717 9.58331V9.58331Z" fill="black"/>
<path d="M11.9717 11.9167H5.38079C5.10779 11.9167 4.88647 12.1405 4.88647 12.4167C4.88647 12.6928 5.10779 12.9167 5.38079 12.9167H11.9717C12.2447 12.9167 12.466 12.6928 12.466 12.4167C12.466 12.1405 12.2447 11.9167 11.9717 11.9167Z" fill="black"/>
<path fill-rule="evenodd" clip-rule="evenodd" d="M15.7614 14.0833C16.1254 14.0833 16.4205 14.3818 16.4205 14.75C16.4205 15.1182 16.1254 15.4166 15.7614 15.4166H1.26139C0.89738 15.4166 0.602295 15.1182 0.602295 14.75C0.602295 14.3818 0.89738 14.0833 1.26139 14.0833H1.59093C1.77293 14.0833 1.92048 13.9341 1.92048 13.75V6.91665C1.92048 6.73255 2.06802 6.58331 2.25002 6.58331H14.7727C14.9547 6.58331 15.1023 6.73255 15.1023 6.91665V13.75C15.1023 13.9341 15.2498 14.0833 15.4318 14.0833H15.7614ZM4.55684 8.24998C4.19283 8.24998 3.89775 8.54846 3.89775 8.91665V13.75C3.89775 13.9341 4.04529 14.0833 4.22729 14.0833H13.125C13.307 14.0833 13.4546 13.9341 13.4546 13.75V8.91665C13.4546 8.54846 13.1595 8.24998 12.7955 8.24998H4.55684Z" fill="black"/>
</svg>
