<svg width="17" height="16" viewBox="0 0 17 16" fill="none" xmlns="http://www.w3.org/2000/svg">
<path d="M4.81827 3C5.18228 3 5.47736 2.70152 5.47736 2.33333V0.666667C5.47736 0.298477 5.18228 0 4.81827 0C4.45427 0 4.15918 0.298477 4.15918 0.666667V2.33333C4.15918 2.70152 4.45427 3 4.81827 3Z" fill="black"/>
<path d="M3.1705 4.66667C3.1705 4.29848 2.87542 4 2.51141 4H0.863681C0.499675 4 0.20459 4.29848 0.20459 4.66667C0.20459 5.03486 0.499675 5.33333 0.863681 5.33333H2.51141C2.87542 5.33333 3.1705 5.03486 3.1705 4.66667Z" fill="black"/>
<path d="M2.51141 10.6667H0.863681C0.499675 10.6667 0.20459 10.9652 0.20459 11.3334C0.20459 11.7015 0.499675 12 0.863681 12H2.51141C2.87542 12 3.1705 11.7015 3.1705 11.3334C3.1705 10.9652 2.87542 10.6667 2.51141 10.6667Z" fill="black"/>
<path d="M11.4091 0C11.0451 0 10.75 0.298477 10.75 0.666667V2.33333C10.75 2.70152 11.0451 3 11.4091 3C11.7731 3 12.0682 2.70152 12.0682 2.33333V0.666667C12.0682 0.298477 11.7731 0 11.4091 0Z" fill="black"/>
<path d="M4.81827 13C4.45427 13 4.15918 13.2985 4.15918 13.6667V15.3333C4.15918 15.7015 4.45427 16 4.81827 16C5.18228 16 5.47736 15.7015 5.47736 15.3333V13.6667C5.47736 13.2985 5.18228 13 4.81827 13Z" fill="black"/>
<path d="M11.4091 13C11.0451 13 10.75 13.2985 10.75 13.6667V15.3333C10.75 15.7015 11.0451 16 11.4091 16C11.7731 16 12.0682 15.7015 12.0682 15.3333V13.6667C12.0682 13.2985 11.7731 13 11.4091 13Z" fill="black"/>
<path d="M13.716 5.33333H15.3637C15.7277 5.33333 16.0228 5.03486 16.0228 4.66667C16.0228 4.29848 15.7277 4 15.3637 4H13.716C13.352 4 13.0569 4.29848 13.0569 4.66667C13.0569 5.03486 13.352 5.33333 13.716 5.33333Z" fill="black"/>
<path d="M15.3637 10.6667H13.716C13.352 10.6667 13.0569 10.9652 13.0569 11.3334C13.0569 11.7015 13.352 12 13.716 12H15.3637C15.7277 12 16.0228 11.7015 16.0228 11.3334C16.0228 10.9652 15.7277 10.6667 15.3637 10.6667Z" fill="black"/>
<path fill-rule="evenodd" clip-rule="evenodd" d="M11.4092 4C11.7732 4 12.0683 4.29848 12.0683 4.66667V11.3333C12.0683 11.7015 11.7732 12 11.4092 12H4.81827C4.45427 12 4.15918 11.7015 4.15918 11.3333V4.66667C4.15918 4.29848 4.45427 4 4.81827 4H11.4092ZM10.4206 10.6667C10.6026 10.6667 10.7501 10.5174 10.7501 10.3333V5.66667C10.7501 5.48257 10.6026 5.33333 10.4206 5.33333H5.80691C5.62491 5.33333 5.47736 5.48257 5.47736 5.66667V10.3333C5.47736 10.5174 5.62491 10.6667 5.80691 10.6667H10.4206Z" fill="black"/>
</svg>
