<svg width="15" height="12" viewBox="0 0 15 12" fill="none" xmlns="http://www.w3.org/2000/svg">
<path d="M6.30667 1.93553H8.19365C9.06685 1.93633 9.82501 2.54408 10.0253 3.40378C10.0421 3.47545 10.1053 3.52611 10.1781 3.52628H13.0697C13.1114 3.52643 13.1514 3.50979 13.181 3.48001C13.2105 3.45024 13.2271 3.40979 13.2271 3.36761V1.77628C13.2271 1.43876 13.0945 1.11507 12.8585 0.876456C12.6225 0.637846 12.3024 0.503874 11.9688 0.504028H2.53156C2.19788 0.503874 1.8778 0.637846 1.6418 0.876456C1.40579 1.11507 1.27319 1.43876 1.27319 1.77628V3.36761C1.27319 3.40979 1.2898 3.45024 1.31934 3.48001C1.34888 3.50979 1.38893 3.52643 1.43063 3.52628H4.32223C4.3952 3.52654 4.45863 3.47569 4.47506 3.40378C4.67531 2.54408 5.43347 1.93633 6.30667 1.93553Z" fill="black"/>
<path d="M0.958775 4.4812C0.791858 4.48105 0.631733 4.54805 0.513705 4.66743C0.395677 4.78682 0.329437 4.94878 0.32959 5.11762V8.45837C0.32959 8.76083 0.540055 9.02151 0.833053 9.08195C0.906162 9.09716 0.958665 9.1622 0.958775 9.2377V10.5263C0.958775 10.8778 1.24047 11.1627 1.58796 11.1627C1.93545 11.1627 2.21714 10.8778 2.21714 10.5263V9.25403C2.21699 9.21185 2.23345 9.17135 2.26288 9.14146C2.29232 9.11158 2.3323 9.09478 2.37401 9.09478H12.1261C12.1678 9.09478 12.2078 9.11158 12.2372 9.14146C12.2666 9.17135 12.2831 9.21185 12.2829 9.25403V10.5263C12.2829 10.8778 12.5646 11.1627 12.9121 11.1627C13.2596 11.1627 13.5413 10.8778 13.5413 10.5263V9.2377C13.5414 9.1622 13.5939 9.09716 13.667 9.08195C13.96 9.02151 14.1705 8.76083 14.1705 8.45837V5.11762C14.1706 4.94878 14.1044 4.78682 13.9864 4.66743C13.8684 4.54805 13.7082 4.48105 13.5413 4.4812H0.958775Z" fill="black"/>
</svg>
